<svg width="48" height="48" viewBox="0 0 48 48" fill="none" xmlns="http://www.w3.org/2000/svg">
<g id="Icon/Fill/facebook">
<path id="Mask" fill-rule="evenodd" clip-rule="evenodd" d="M34 7C34 6.448 33.55 6 33 6H28C22.476 6 18 10.03 18 15V20.4H13C12.448 20.4 12 20.848 12 21.4V26.6C12 27.152 12.448 27.6 13 27.6H18V41C18 41.552 18.448 42 19 42H25C25.55 42 26 41.552 26 41V27.6H31.238C31.688 27.6 32.082 27.3 32.204 26.868L33.646 21.668C33.824 21.032 33.344 20.4 32.684 20.4H26V15C26 14.006 26.894 13.2 28 13.2H33C33.55 13.2 34 12.752 34 12.2V7Z" fill="#231F20"/>
<mask id="mask0_38_50" style="mask-type:alpha" maskUnits="userSpaceOnUse" x="12" y="6" width="22" height="36">
<path id="Mask_2" fill-rule="evenodd" clip-rule="evenodd" d="M34 7C34 6.448 33.55 6 33 6H28C22.476 6 18 10.03 18 15V20.4H13C12.448 20.4 12 20.848 12 21.4V26.6C12 27.152 12.448 27.6 13 27.6H18V41C18 41.552 18.448 42 19 42H25C25.55 42 26 41.552 26 41V27.6H31.238C31.688 27.6 32.082 27.3 32.204 26.868L33.646 21.668C33.824 21.032 33.344 20.4 32.684 20.4H26V15C26 14.006 26.894 13.2 28 13.2H33C33.55 13.2 34 12.752 34 12.2V7Z" fill="white"/>
</mask>
<g mask="url(#mask0_38_50)">
<g id="&#240;&#159;&#142;&#168; Color">
<rect id="Base" width="48" height="48" fill="#E2B024"/>
</g>
</g>
</g>
</svg>
