<svg width="48" height="48" viewBox="0 0 48 48" fill="none" xmlns="http://www.w3.org/2000/svg">
<g id="Icon/Fill/google">
<path id="Mask" fill-rule="evenodd" clip-rule="evenodd" d="M34.9902 27.961C33.6582 32.245 30.3382 35.211 25.9202 35.865C19.1782 36.863 12.5582 31.751 12.0342 24.951C11.4902 17.895 17.0562 12.001 24.0022 12.001C25.6082 12.001 27.1402 12.317 28.5402 12.889C29.0262 13.087 29.5762 12.917 29.8242 12.457L32.6942 7.16298C32.9662 6.65698 32.7702 6.00498 32.2462 5.76898C29.7322 4.63298 26.9442 4.00098 24.0082 4.00098C12.7642 4.00098 3.68619 13.273 4.00819 24.587C4.30219 34.909 12.8222 43.545 23.1362 43.983C34.2282 44.451 43.4282 35.891 43.9862 25.045C44.0082 24.649 44.0002 22.343 43.9922 20.991C43.9902 20.439 43.5422 20.001 42.9922 20.001H24.9942C24.4422 20.001 23.9942 20.447 23.9942 21.001V26.961C23.9942 27.511 24.4422 27.961 24.9942 27.961H34.9902Z" fill="#231F20"/>
<mask id="mask0_38_46" style="mask-type:alpha" maskUnits="userSpaceOnUse" x="3" y="4" width="42" height="41">
<path id="Mask_2" fill-rule="evenodd" clip-rule="evenodd" d="M34.9902 27.961C33.6582 32.245 30.3382 35.211 25.9202 35.865C19.1782 36.863 12.5582 31.751 12.0342 24.951C11.4902 17.895 17.0562 12.001 24.0022 12.001C25.6082 12.001 27.1402 12.317 28.5402 12.889C29.0262 13.087 29.5762 12.917 29.8242 12.457L32.6942 7.16298C32.9662 6.65698 32.7702 6.00498 32.2462 5.76898C29.7322 4.63298 26.9442 4.00098 24.0082 4.00098C12.7642 4.00098 3.68619 13.273 4.00819 24.587C4.30219 34.909 12.8222 43.545 23.1362 43.983C34.2282 44.451 43.4282 35.891 43.9862 25.045C44.0082 24.649 44.0002 22.343 43.9922 20.991C43.9902 20.439 43.5422 20.001 42.9922 20.001H24.9942C24.4422 20.001 23.9942 20.447 23.9942 21.001V26.961C23.9942 27.511 24.4422 27.961 24.9942 27.961H34.9902Z" fill="white"/>
</mask>
<g mask="url(#mask0_38_46)">
<g id="&#240;&#159;&#142;&#168; Color">
<rect id="Base" width="48" height="48" fill="#E2B024"/>
</g>
</g>
</g>
</svg>
