<svg width="48" height="48" viewBox="0 0 48 48" fill="none" xmlns="http://www.w3.org/2000/svg">
<g id="Icon/Fill/linkedin">
<path id="Mask" fill-rule="evenodd" clip-rule="evenodd" d="M5.9996 10.5C5.9996 8.016 8.0156 6 10.4996 6C12.9836 6 14.9996 8.016 14.9996 10.5C14.9996 12.984 12.9836 15 10.4996 15C8.0156 15 5.9996 12.984 5.9996 10.5ZM30.3008 16.8008C23.8388 16.8008 18.5988 22.0088 18.5988 28.4288V40.1988C18.5988 41.1928 19.4068 42.0008 20.4008 42.0008H24.5988C25.5928 42.0008 26.4008 41.1928 26.4008 40.1988V28.4288C26.4008 26.1568 28.3688 24.3408 30.7048 24.5748C32.7328 24.7768 34.1988 26.6308 34.1988 28.6688V40.1988C34.1988 41.1928 35.0068 42.0008 36.0008 42.0008H40.1988C41.1928 42.0008 42.0008 41.1928 42.0008 40.1988V28.4288C42.0008 22.0088 36.7608 16.8008 30.3008 16.8008ZM13.1992 18.5996H7.8012C6.8072 18.5996 5.9992 19.4056 5.9992 20.3996V40.1996C5.9992 41.1936 6.8072 41.9996 7.8012 41.9996H13.1992C14.1932 41.9996 14.9992 41.1936 14.9992 40.1996V20.3996C14.9992 19.4056 14.1932 18.5996 13.1992 18.5996Z" fill="#231F20"/>
<mask id="mask0_38_54" style="mask-type:alpha" maskUnits="userSpaceOnUse" x="5" y="6" width="38" height="37">
<path id="Mask_2" fill-rule="evenodd" clip-rule="evenodd" d="M5.9996 10.5C5.9996 8.016 8.0156 6 10.4996 6C12.9836 6 14.9996 8.016 14.9996 10.5C14.9996 12.984 12.9836 15 10.4996 15C8.0156 15 5.9996 12.984 5.9996 10.5ZM30.3008 16.8008C23.8388 16.8008 18.5988 22.0088 18.5988 28.4288V40.1988C18.5988 41.1928 19.4068 42.0008 20.4008 42.0008H24.5988C25.5928 42.0008 26.4008 41.1928 26.4008 40.1988V28.4288C26.4008 26.1568 28.3688 24.3408 30.7048 24.5748C32.7328 24.7768 34.1988 26.6308 34.1988 28.6688V40.1988C34.1988 41.1928 35.0068 42.0008 36.0008 42.0008H40.1988C41.1928 42.0008 42.0008 41.1928 42.0008 40.1988V28.4288C42.0008 22.0088 36.7608 16.8008 30.3008 16.8008ZM13.1992 18.5996H7.8012C6.8072 18.5996 5.9992 19.4056 5.9992 20.3996V40.1996C5.9992 41.1936 6.8072 41.9996 7.8012 41.9996H13.1992C14.1932 41.9996 14.9992 41.1936 14.9992 40.1996V20.3996C14.9992 19.4056 14.1932 18.5996 13.1992 18.5996Z" fill="white"/>
</mask>
<g mask="url(#mask0_38_54)">
<g id="&#240;&#159;&#142;&#168; Color">
<rect id="Base" width="48" height="48" fill="#E2B024"/>
</g>
</g>
</g>
</svg>
