<svg width="48" height="48" viewBox="0 0 48 48" fill="none" xmlns="http://www.w3.org/2000/svg">
<g id="Icon/Fill/twitter">
<path id="Mask" fill-rule="evenodd" clip-rule="evenodd" d="M16.1539 40.0005C30.6459 40.0005 39.0299 28.7486 39.0299 18.0706C39.0299 17.7766 41.0899 16.0086 41.9719 12.3226C42.1519 11.5746 41.4239 10.9846 40.7379 11.2986C38.9779 12.1066 37.1919 11.4666 36.4159 10.5466C33.4319 7.29255 28.4419 7.13655 25.2679 10.1966C23.2219 12.1706 22.3539 15.1106 22.9879 17.9166C16.2859 18.3946 11.6839 15.2186 7.89986 10.8646C7.41186 10.2986 6.50586 10.5966 6.40386 11.3446C5.84386 15.5086 5.66786 25.6325 15.6999 31.4466C13.9579 33.9506 10.5479 35.4286 6.75186 36.0626C5.91186 36.2046 5.71186 37.3686 6.47986 37.7446C9.48786 39.2246 12.7939 39.9986 16.1539 39.9946" fill="#231F20"/>
<mask id="mask0_38_64" style="mask-type:alpha" maskUnits="userSpaceOnUse" x="6" y="8" width="36" height="33">
<path id="Mask_2" fill-rule="evenodd" clip-rule="evenodd" d="M16.1539 40.0005C30.6459 40.0005 39.0299 28.7486 39.0299 18.0706C39.0299 17.7766 41.0899 16.0086 41.9719 12.3226C42.1519 11.5746 41.4239 10.9846 40.7379 11.2986C38.9779 12.1066 37.1919 11.4666 36.4159 10.5466C33.4319 7.29255 28.4419 7.13655 25.2679 10.1966C23.2219 12.1706 22.3539 15.1106 22.9879 17.9166C16.2859 18.3946 11.6839 15.2186 7.89986 10.8646C7.41186 10.2986 6.50586 10.5966 6.40386 11.3446C5.84386 15.5086 5.66786 25.6325 15.6999 31.4466C13.9579 33.9506 10.5479 35.4286 6.75186 36.0626C5.91186 36.2046 5.71186 37.3686 6.47986 37.7446C9.48786 39.2246 12.7939 39.9986 16.1539 39.9946" fill="white"/>
</mask>
<g mask="url(#mask0_38_64)">
<g id="&#240;&#159;&#142;&#168; Color">
<rect id="Base" width="48" height="48" fill="#E2B024"/>
</g>
</g>
</g>
</svg>
